<mxfile host="app.diagrams.net" agent="Mozilla/5.0 (Windows NT 10.0; Win64; x64) AppleWebKit/537.36 (KHTML, like Gecko) Chrome/136.0.0.0 Safari/537.36 Edg/136.0.0.0" version="27.0.6">
  <diagram name="PÃ¡gina-1" id="wMGKSX51x95KMJbHppVl">
    <mxGraphModel dx="618" dy="1586" grid="0" gridSize="10" guides="1" tooltips="1" connect="1" arrows="1" fold="1" page="0" pageScale="1" pageWidth="827" pageHeight="1169" math="0" shadow="0">
      <root>
        <mxCell id="0" />
        <mxCell id="1" parent="0" />
        <mxCell id="-jk4_DibVYz46m03gxtf-27" value="" style="shape=table;startSize=30;container=1;collapsible=1;childLayout=tableLayout;fixedRows=1;rowLines=0;fontStyle=1;align=center;resizeLast=1;html=1;" parent="1" vertex="1">
          <mxGeometry x="1412" y="280" width="316" height="180" as="geometry" />
        </mxCell>
        <mxCell id="-jk4_DibVYz46m03gxtf-28" value="" style="shape=tableRow;horizontal=0;startSize=0;swimlaneHead=0;swimlaneBody=0;fillColor=none;collapsible=0;dropTarget=0;points=[[0,0.5],[1,0.5]];portConstraint=eastwest;top=0;left=0;right=0;bottom=1;" parent="-jk4_DibVYz46m03gxtf-27" vertex="1">
          <mxGeometry y="30" width="316" height="30" as="geometry" />
        </mxCell>
        <mxCell id="-jk4_DibVYz46m03gxtf-29" value="" style="shape=partialRectangle;connectable=0;fillColor=none;top=0;left=0;bottom=0;right=0;fontStyle=1;overflow=hidden;whiteSpace=wrap;html=1;" parent="-jk4_DibVYz46m03gxtf-28" vertex="1">
          <mxGeometry width="30" height="30" as="geometry">
            <mxRectangle width="30" height="30" as="alternateBounds" />
          </mxGeometry>
        </mxCell>
        <mxCell id="-jk4_DibVYz46m03gxtf-30" value="" style="shape=partialRectangle;connectable=0;fillColor=none;top=0;left=0;bottom=0;right=0;align=left;spacingLeft=6;fontStyle=5;overflow=hidden;whiteSpace=wrap;html=1;" parent="-jk4_DibVYz46m03gxtf-28" vertex="1">
          <mxGeometry x="30" width="286" height="30" as="geometry">
            <mxRectangle width="286" height="30" as="alternateBounds" />
          </mxGeometry>
        </mxCell>
        <mxCell id="-jk4_DibVYz46m03gxtf-31" value="" style="shape=tableRow;horizontal=0;startSize=0;swimlaneHead=0;swimlaneBody=0;fillColor=none;collapsible=0;dropTarget=0;points=[[0,0.5],[1,0.5]];portConstraint=eastwest;top=0;left=0;right=0;bottom=0;" parent="-jk4_DibVYz46m03gxtf-27" vertex="1">
          <mxGeometry y="60" width="316" height="30" as="geometry" />
        </mxCell>
        <mxCell id="-jk4_DibVYz46m03gxtf-32" value="" style="shape=partialRectangle;connectable=0;fillColor=none;top=0;left=0;bottom=0;right=0;editable=1;overflow=hidden;whiteSpace=wrap;html=1;" parent="-jk4_DibVYz46m03gxtf-31" vertex="1">
          <mxGeometry width="30" height="30" as="geometry">
            <mxRectangle width="30" height="30" as="alternateBounds" />
          </mxGeometry>
        </mxCell>
        <mxCell id="-jk4_DibVYz46m03gxtf-33" value="" style="shape=partialRectangle;connectable=0;fillColor=none;top=0;left=0;bottom=0;right=0;align=left;spacingLeft=6;overflow=hidden;whiteSpace=wrap;html=1;" parent="-jk4_DibVYz46m03gxtf-31" vertex="1">
          <mxGeometry x="30" width="286" height="30" as="geometry">
            <mxRectangle width="286" height="30" as="alternateBounds" />
          </mxGeometry>
        </mxCell>
        <mxCell id="-jk4_DibVYz46m03gxtf-34" value="" style="shape=tableRow;horizontal=0;startSize=0;swimlaneHead=0;swimlaneBody=0;fillColor=none;collapsible=0;dropTarget=0;points=[[0,0.5],[1,0.5]];portConstraint=eastwest;top=0;left=0;right=0;bottom=0;" parent="-jk4_DibVYz46m03gxtf-27" vertex="1">
          <mxGeometry y="90" width="316" height="30" as="geometry" />
        </mxCell>
        <mxCell id="-jk4_DibVYz46m03gxtf-35" value="" style="shape=partialRectangle;connectable=0;fillColor=none;top=0;left=0;bottom=0;right=0;editable=1;overflow=hidden;whiteSpace=wrap;html=1;" parent="-jk4_DibVYz46m03gxtf-34" vertex="1">
          <mxGeometry width="30" height="30" as="geometry">
            <mxRectangle width="30" height="30" as="alternateBounds" />
          </mxGeometry>
        </mxCell>
        <mxCell id="-jk4_DibVYz46m03gxtf-36" value="" style="shape=partialRectangle;connectable=0;fillColor=none;top=0;left=0;bottom=0;right=0;align=left;spacingLeft=6;overflow=hidden;whiteSpace=wrap;html=1;" parent="-jk4_DibVYz46m03gxtf-34" vertex="1">
          <mxGeometry x="30" width="286" height="30" as="geometry">
            <mxRectangle width="286" height="30" as="alternateBounds" />
          </mxGeometry>
        </mxCell>
        <mxCell id="-jk4_DibVYz46m03gxtf-37" value="" style="shape=tableRow;horizontal=0;startSize=0;swimlaneHead=0;swimlaneBody=0;fillColor=none;collapsible=0;dropTarget=0;points=[[0,0.5],[1,0.5]];portConstraint=eastwest;top=0;left=0;right=0;bottom=0;" parent="-jk4_DibVYz46m03gxtf-27" vertex="1">
          <mxGeometry y="120" width="316" height="30" as="geometry" />
        </mxCell>
        <mxCell id="-jk4_DibVYz46m03gxtf-38" value="" style="shape=partialRectangle;connectable=0;fillColor=none;top=0;left=0;bottom=0;right=0;editable=1;overflow=hidden;whiteSpace=wrap;html=1;" parent="-jk4_DibVYz46m03gxtf-37" vertex="1">
          <mxGeometry width="30" height="30" as="geometry">
            <mxRectangle width="30" height="30" as="alternateBounds" />
          </mxGeometry>
        </mxCell>
        <mxCell id="-jk4_DibVYz46m03gxtf-39" value="" style="shape=partialRectangle;connectable=0;fillColor=none;top=0;left=0;bottom=0;right=0;align=left;spacingLeft=6;overflow=hidden;whiteSpace=wrap;html=1;" parent="-jk4_DibVYz46m03gxtf-37" vertex="1">
          <mxGeometry x="30" width="286" height="30" as="geometry">
            <mxRectangle width="286" height="30" as="alternateBounds" />
          </mxGeometry>
        </mxCell>
        <mxCell id="-jk4_DibVYz46m03gxtf-40" style="shape=tableRow;horizontal=0;startSize=0;swimlaneHead=0;swimlaneBody=0;fillColor=none;collapsible=0;dropTarget=0;points=[[0,0.5],[1,0.5]];portConstraint=eastwest;top=0;left=0;right=0;bottom=0;" parent="-jk4_DibVYz46m03gxtf-27" vertex="1">
          <mxGeometry y="150" width="316" height="30" as="geometry" />
        </mxCell>
        <mxCell id="-jk4_DibVYz46m03gxtf-41" style="shape=partialRectangle;connectable=0;fillColor=none;top=0;left=0;bottom=0;right=0;editable=1;overflow=hidden;whiteSpace=wrap;html=1;" parent="-jk4_DibVYz46m03gxtf-40" vertex="1">
          <mxGeometry width="30" height="30" as="geometry">
            <mxRectangle width="30" height="30" as="alternateBounds" />
          </mxGeometry>
        </mxCell>
        <mxCell id="-jk4_DibVYz46m03gxtf-42" value="" style="shape=partialRectangle;connectable=0;fillColor=none;top=0;left=0;bottom=0;right=0;align=left;spacingLeft=6;overflow=hidden;whiteSpace=wrap;html=1;" parent="-jk4_DibVYz46m03gxtf-40" vertex="1">
          <mxGeometry x="30" width="286" height="30" as="geometry">
            <mxRectangle width="286" height="30" as="alternateBounds" />
          </mxGeometry>
        </mxCell>
        <mxCell id="H71wBJpox2kWIjM6bh9o-1" value="Paciente" style="rounded=0;whiteSpace=wrap;html=1;" parent="1" vertex="1">
          <mxGeometry x="955.5" y="-201" width="159" height="56" as="geometry" />
        </mxCell>
        <mxCell id="H71wBJpox2kWIjM6bh9o-3" value="" style="rhombus;whiteSpace=wrap;html=1;" parent="1" vertex="1">
          <mxGeometry x="1083" y="244" width="80" height="80" as="geometry" />
        </mxCell>
        <mxCell id="H71wBJpox2kWIjM6bh9o-6" value="" style="endArrow=none;html=1;rounded=0;exitX=0;exitY=0.5;exitDx=0;exitDy=0;entryX=1;entryY=0.5;entryDx=0;entryDy=0;" parent="1" edge="1">
          <mxGeometry width="50" height="50" relative="1" as="geometry">
            <mxPoint x="1345" y="284.5" as="sourcePoint" />
            <mxPoint x="1163" y="284.5" as="targetPoint" />
          </mxGeometry>
        </mxCell>
        <mxCell id="H71wBJpox2kWIjM6bh9o-8" value="Text" style="text;html=1;align=center;verticalAlign=middle;whiteSpace=wrap;rounded=0;" parent="1" vertex="1">
          <mxGeometry x="907" y="250" width="60" height="29" as="geometry" />
        </mxCell>
        <mxCell id="H71wBJpox2kWIjM6bh9o-9" value="Text" style="text;html=1;align=center;verticalAlign=middle;whiteSpace=wrap;rounded=0;" parent="1" vertex="1">
          <mxGeometry x="1279" y="250" width="60" height="30" as="geometry" />
        </mxCell>
        <mxCell id="H71wBJpox2kWIjM6bh9o-13" value="" style="endArrow=none;html=1;rounded=0;exitX=0;exitY=0.5;exitDx=0;exitDy=0;entryX=1;entryY=0.5;entryDx=0;entryDy=0;" parent="1" edge="1">
          <mxGeometry width="50" height="50" relative="1" as="geometry">
            <mxPoint x="1083" y="284.5" as="sourcePoint" />
            <mxPoint x="901" y="284.5" as="targetPoint" />
          </mxGeometry>
        </mxCell>
        <mxCell id="H71wBJpox2kWIjM6bh9o-14" value="" style="rhombus;whiteSpace=wrap;html=1;" parent="1" vertex="1">
          <mxGeometry x="995" y="-403" width="80" height="80" as="geometry" />
        </mxCell>
        <mxCell id="H71wBJpox2kWIjM6bh9o-16" value="Text" style="text;html=1;align=center;verticalAlign=middle;whiteSpace=wrap;rounded=0;" parent="1" vertex="1">
          <mxGeometry x="1768" y="-412" width="60" height="29" as="geometry" />
        </mxCell>
        <mxCell id="H71wBJpox2kWIjM6bh9o-21" value="" style="endArrow=none;html=1;rounded=0;" parent="1" edge="1">
          <mxGeometry width="50" height="50" relative="1" as="geometry">
            <mxPoint x="1034.5" y="-403" as="sourcePoint" />
            <mxPoint x="1034.5" y="-528" as="targetPoint" />
          </mxGeometry>
        </mxCell>
        <mxCell id="H71wBJpox2kWIjM6bh9o-22" value="" style="endArrow=none;html=1;rounded=0;" parent="1" edge="1">
          <mxGeometry width="50" height="50" relative="1" as="geometry">
            <mxPoint x="1034.5" y="-200" as="sourcePoint" />
            <mxPoint x="1034.5" y="-325" as="targetPoint" />
          </mxGeometry>
        </mxCell>
        <mxCell id="sVk84HxdAhhgWRtZxsjx-1" value="MÃ©dico" style="rounded=0;whiteSpace=wrap;html=1;" vertex="1" parent="1">
          <mxGeometry x="953" y="-585" width="159" height="56" as="geometry" />
        </mxCell>
        <mxCell id="sVk84HxdAhhgWRtZxsjx-2" value="Especialidade" style="rounded=0;whiteSpace=wrap;html=1;" vertex="1" parent="1">
          <mxGeometry x="1557" y="-585" width="159" height="56" as="geometry" />
        </mxCell>
        <mxCell id="sVk84HxdAhhgWRtZxsjx-3" value="" style="rhombus;whiteSpace=wrap;html=1;" vertex="1" parent="1">
          <mxGeometry x="1294" y="-597" width="80" height="80" as="geometry" />
        </mxCell>
        <mxCell id="sVk84HxdAhhgWRtZxsjx-4" value="" style="endArrow=none;html=1;rounded=0;exitX=0;exitY=0.5;exitDx=0;exitDy=0;entryX=1;entryY=0.5;entryDx=0;entryDy=0;" edge="1" parent="1">
          <mxGeometry width="50" height="50" relative="1" as="geometry">
            <mxPoint x="1556" y="-557.5" as="sourcePoint" />
            <mxPoint x="1374" y="-557.5" as="targetPoint" />
          </mxGeometry>
        </mxCell>
        <mxCell id="sVk84HxdAhhgWRtZxsjx-5" value="Text" style="text;html=1;align=center;verticalAlign=middle;whiteSpace=wrap;rounded=0;" vertex="1" parent="1">
          <mxGeometry x="1118" y="-592" width="60" height="29" as="geometry" />
        </mxCell>
        <mxCell id="sVk84HxdAhhgWRtZxsjx-6" value="Text" style="text;html=1;align=center;verticalAlign=middle;whiteSpace=wrap;rounded=0;" vertex="1" parent="1">
          <mxGeometry x="1490" y="-592" width="60" height="30" as="geometry" />
        </mxCell>
        <mxCell id="sVk84HxdAhhgWRtZxsjx-7" value="" style="endArrow=none;html=1;rounded=0;exitX=0;exitY=0.5;exitDx=0;exitDy=0;entryX=1;entryY=0.5;entryDx=0;entryDy=0;" edge="1" parent="1">
          <mxGeometry width="50" height="50" relative="1" as="geometry">
            <mxPoint x="1294" y="-557.5" as="sourcePoint" />
            <mxPoint x="1112" y="-557.5" as="targetPoint" />
          </mxGeometry>
        </mxCell>
        <mxCell id="sVk84HxdAhhgWRtZxsjx-8" value="" style="rhombus;whiteSpace=wrap;html=1;" vertex="1" parent="1">
          <mxGeometry x="1898" y="-597" width="80" height="80" as="geometry" />
        </mxCell>
        <mxCell id="sVk84HxdAhhgWRtZxsjx-9" value="" style="endArrow=none;html=1;rounded=0;exitX=0;exitY=0.5;exitDx=0;exitDy=0;entryX=1;entryY=0.5;entryDx=0;entryDy=0;" edge="1" parent="1">
          <mxGeometry width="50" height="50" relative="1" as="geometry">
            <mxPoint x="2160" y="-557.5" as="sourcePoint" />
            <mxPoint x="1978" y="-557.5" as="targetPoint" />
          </mxGeometry>
        </mxCell>
        <mxCell id="sVk84HxdAhhgWRtZxsjx-10" value="Text" style="text;html=1;align=center;verticalAlign=middle;whiteSpace=wrap;rounded=0;" vertex="1" parent="1">
          <mxGeometry x="1722" y="-592" width="60" height="29" as="geometry" />
        </mxCell>
        <mxCell id="sVk84HxdAhhgWRtZxsjx-11" value="Text" style="text;html=1;align=center;verticalAlign=middle;whiteSpace=wrap;rounded=0;" vertex="1" parent="1">
          <mxGeometry x="2094" y="-592" width="60" height="30" as="geometry" />
        </mxCell>
        <mxCell id="sVk84HxdAhhgWRtZxsjx-12" value="" style="endArrow=none;html=1;rounded=0;exitX=0;exitY=0.5;exitDx=0;exitDy=0;entryX=1;entryY=0.5;entryDx=0;entryDy=0;" edge="1" parent="1">
          <mxGeometry width="50" height="50" relative="1" as="geometry">
            <mxPoint x="1898" y="-557.5" as="sourcePoint" />
            <mxPoint x="1716" y="-557.5" as="targetPoint" />
          </mxGeometry>
        </mxCell>
        <mxCell id="sVk84HxdAhhgWRtZxsjx-13" value="Consulta" style="rounded=0;whiteSpace=wrap;html=1;" vertex="1" parent="1">
          <mxGeometry x="2154" y="-585" width="159" height="56" as="geometry" />
        </mxCell>
        <mxCell id="sVk84HxdAhhgWRtZxsjx-14" value="" style="rhombus;whiteSpace=wrap;html=1;" vertex="1" parent="1">
          <mxGeometry x="2195" y="-404" width="80" height="80" as="geometry" />
        </mxCell>
        <mxCell id="sVk84HxdAhhgWRtZxsjx-15" value="Text" style="text;html=1;align=center;verticalAlign=middle;whiteSpace=wrap;rounded=0;" vertex="1" parent="1">
          <mxGeometry x="2170" y="-522" width="60" height="29" as="geometry" />
        </mxCell>
        <mxCell id="sVk84HxdAhhgWRtZxsjx-16" value="Text" style="text;html=1;align=center;verticalAlign=middle;whiteSpace=wrap;rounded=0;" vertex="1" parent="1">
          <mxGeometry x="2170" y="-236" width="60" height="30" as="geometry" />
        </mxCell>
        <mxCell id="sVk84HxdAhhgWRtZxsjx-17" value="" style="endArrow=none;html=1;rounded=0;" edge="1" parent="1">
          <mxGeometry width="50" height="50" relative="1" as="geometry">
            <mxPoint x="2234.5" y="-404" as="sourcePoint" />
            <mxPoint x="2234.5" y="-529" as="targetPoint" />
          </mxGeometry>
        </mxCell>
        <mxCell id="sVk84HxdAhhgWRtZxsjx-18" value="" style="endArrow=none;html=1;rounded=0;" edge="1" parent="1">
          <mxGeometry width="50" height="50" relative="1" as="geometry">
            <mxPoint x="2234.5" y="-201" as="sourcePoint" />
            <mxPoint x="2234.5" y="-326" as="targetPoint" />
          </mxGeometry>
        </mxCell>
        <mxCell id="sVk84HxdAhhgWRtZxsjx-19" value="DiagnÃ³stico" style="rounded=0;whiteSpace=wrap;html=1;" vertex="1" parent="1">
          <mxGeometry x="2155.5" y="-201" width="159" height="56" as="geometry" />
        </mxCell>
        <mxCell id="sVk84HxdAhhgWRtZxsjx-20" value="" style="group" vertex="1" connectable="0" parent="1">
          <mxGeometry x="1080" y="-529" width="20" height="202" as="geometry" />
        </mxCell>
        <mxCell id="sVk84HxdAhhgWRtZxsjx-21" value="" style="endArrow=none;html=1;rounded=0;" edge="1" parent="sVk84HxdAhhgWRtZxsjx-20" source="sVk84HxdAhhgWRtZxsjx-23">
          <mxGeometry width="50" height="50" relative="1" as="geometry">
            <mxPoint x="10" y="266" as="sourcePoint" />
            <mxPoint x="10" as="targetPoint" />
          </mxGeometry>
        </mxCell>
        <mxCell id="sVk84HxdAhhgWRtZxsjx-22" value="" style="endArrow=none;html=1;rounded=0;" edge="1" parent="sVk84HxdAhhgWRtZxsjx-20" source="sVk84HxdAhhgWRtZxsjx-26" target="sVk84HxdAhhgWRtZxsjx-23">
          <mxGeometry width="50" height="50" relative="1" as="geometry">
            <mxPoint x="10" y="266" as="sourcePoint" />
            <mxPoint x="10" as="targetPoint" />
          </mxGeometry>
        </mxCell>
        <mxCell id="sVk84HxdAhhgWRtZxsjx-23" value="" style="ellipse;whiteSpace=wrap;html=1;aspect=fixed;" vertex="1" parent="sVk84HxdAhhgWRtZxsjx-20">
          <mxGeometry y="46" width="20" height="20" as="geometry" />
        </mxCell>
        <mxCell id="sVk84HxdAhhgWRtZxsjx-24" value="" style="ellipse;whiteSpace=wrap;html=1;aspect=fixed;" vertex="1" parent="sVk84HxdAhhgWRtZxsjx-20">
          <mxGeometry y="11" width="20" height="20" as="geometry" />
        </mxCell>
        <mxCell id="sVk84HxdAhhgWRtZxsjx-25" value="" style="endArrow=none;html=1;rounded=0;" edge="1" parent="sVk84HxdAhhgWRtZxsjx-20" source="sVk84HxdAhhgWRtZxsjx-29" target="sVk84HxdAhhgWRtZxsjx-26">
          <mxGeometry width="50" height="50" relative="1" as="geometry">
            <mxPoint x="10" y="266" as="sourcePoint" />
            <mxPoint x="10" y="65" as="targetPoint" />
          </mxGeometry>
        </mxCell>
        <mxCell id="sVk84HxdAhhgWRtZxsjx-26" value="" style="ellipse;whiteSpace=wrap;html=1;aspect=fixed;" vertex="1" parent="sVk84HxdAhhgWRtZxsjx-20">
          <mxGeometry y="80" width="20" height="20" as="geometry" />
        </mxCell>
        <mxCell id="sVk84HxdAhhgWRtZxsjx-27" value="" style="ellipse;whiteSpace=wrap;html=1;aspect=fixed;" vertex="1" parent="sVk84HxdAhhgWRtZxsjx-20">
          <mxGeometry y="115" width="20" height="20" as="geometry" />
        </mxCell>
        <mxCell id="sVk84HxdAhhgWRtZxsjx-28" value="" style="ellipse;whiteSpace=wrap;html=1;aspect=fixed;" vertex="1" parent="sVk84HxdAhhgWRtZxsjx-20">
          <mxGeometry y="149" width="20" height="20" as="geometry" />
        </mxCell>
        <mxCell id="sVk84HxdAhhgWRtZxsjx-29" value="" style="ellipse;whiteSpace=wrap;html=1;aspect=fixed;" vertex="1" parent="sVk84HxdAhhgWRtZxsjx-20">
          <mxGeometry y="182" width="20" height="20" as="geometry" />
        </mxCell>
        <mxCell id="sVk84HxdAhhgWRtZxsjx-30" value="Text" style="text;html=1;align=center;verticalAlign=middle;whiteSpace=wrap;rounded=0;" vertex="1" parent="1">
          <mxGeometry x="1105" y="-522" width="60" height="30" as="geometry" />
        </mxCell>
        <mxCell id="sVk84HxdAhhgWRtZxsjx-31" value="Text" style="text;html=1;align=center;verticalAlign=middle;whiteSpace=wrap;rounded=0;" vertex="1" parent="1">
          <mxGeometry x="1105" y="-487" width="60" height="30" as="geometry" />
        </mxCell>
        <mxCell id="sVk84HxdAhhgWRtZxsjx-32" value="Text" style="text;html=1;align=center;verticalAlign=middle;whiteSpace=wrap;rounded=0;" vertex="1" parent="1">
          <mxGeometry x="1105" y="-452" width="60" height="30" as="geometry" />
        </mxCell>
        <mxCell id="sVk84HxdAhhgWRtZxsjx-33" value="Text" style="text;html=1;align=center;verticalAlign=middle;whiteSpace=wrap;rounded=0;" vertex="1" parent="1">
          <mxGeometry x="1105" y="-416" width="60" height="30" as="geometry" />
        </mxCell>
        <mxCell id="sVk84HxdAhhgWRtZxsjx-34" value="Text" style="text;html=1;align=center;verticalAlign=middle;whiteSpace=wrap;rounded=0;" vertex="1" parent="1">
          <mxGeometry x="1105" y="-383" width="60" height="30" as="geometry" />
        </mxCell>
        <mxCell id="sVk84HxdAhhgWRtZxsjx-35" value="Text" style="text;html=1;align=center;verticalAlign=middle;whiteSpace=wrap;rounded=0;" vertex="1" parent="1">
          <mxGeometry x="1105" y="-350" width="60" height="30" as="geometry" />
        </mxCell>
        <mxCell id="sVk84HxdAhhgWRtZxsjx-36" value="" style="group" vertex="1" connectable="0" parent="1">
          <mxGeometry x="1066" y="-145" width="20" height="202" as="geometry" />
        </mxCell>
        <mxCell id="sVk84HxdAhhgWRtZxsjx-37" value="" style="endArrow=none;html=1;rounded=0;" edge="1" parent="sVk84HxdAhhgWRtZxsjx-36" source="sVk84HxdAhhgWRtZxsjx-39">
          <mxGeometry width="50" height="50" relative="1" as="geometry">
            <mxPoint x="10" y="266" as="sourcePoint" />
            <mxPoint x="10" as="targetPoint" />
          </mxGeometry>
        </mxCell>
        <mxCell id="sVk84HxdAhhgWRtZxsjx-38" value="" style="endArrow=none;html=1;rounded=0;" edge="1" parent="sVk84HxdAhhgWRtZxsjx-36" source="sVk84HxdAhhgWRtZxsjx-42" target="sVk84HxdAhhgWRtZxsjx-39">
          <mxGeometry width="50" height="50" relative="1" as="geometry">
            <mxPoint x="10" y="266" as="sourcePoint" />
            <mxPoint x="10" as="targetPoint" />
          </mxGeometry>
        </mxCell>
        <mxCell id="sVk84HxdAhhgWRtZxsjx-39" value="" style="ellipse;whiteSpace=wrap;html=1;aspect=fixed;" vertex="1" parent="sVk84HxdAhhgWRtZxsjx-36">
          <mxGeometry y="46" width="20" height="20" as="geometry" />
        </mxCell>
        <mxCell id="sVk84HxdAhhgWRtZxsjx-40" value="" style="ellipse;whiteSpace=wrap;html=1;aspect=fixed;" vertex="1" parent="sVk84HxdAhhgWRtZxsjx-36">
          <mxGeometry y="11" width="20" height="20" as="geometry" />
        </mxCell>
        <mxCell id="sVk84HxdAhhgWRtZxsjx-41" value="" style="endArrow=none;html=1;rounded=0;" edge="1" parent="sVk84HxdAhhgWRtZxsjx-36" source="sVk84HxdAhhgWRtZxsjx-45" target="sVk84HxdAhhgWRtZxsjx-42">
          <mxGeometry width="50" height="50" relative="1" as="geometry">
            <mxPoint x="10" y="266" as="sourcePoint" />
            <mxPoint x="10" y="65" as="targetPoint" />
          </mxGeometry>
        </mxCell>
        <mxCell id="sVk84HxdAhhgWRtZxsjx-42" value="" style="ellipse;whiteSpace=wrap;html=1;aspect=fixed;" vertex="1" parent="sVk84HxdAhhgWRtZxsjx-36">
          <mxGeometry y="80" width="20" height="20" as="geometry" />
        </mxCell>
        <mxCell id="sVk84HxdAhhgWRtZxsjx-43" value="" style="ellipse;whiteSpace=wrap;html=1;aspect=fixed;" vertex="1" parent="sVk84HxdAhhgWRtZxsjx-36">
          <mxGeometry y="115" width="20" height="20" as="geometry" />
        </mxCell>
        <mxCell id="sVk84HxdAhhgWRtZxsjx-44" value="" style="ellipse;whiteSpace=wrap;html=1;aspect=fixed;" vertex="1" parent="sVk84HxdAhhgWRtZxsjx-36">
          <mxGeometry y="149" width="20" height="20" as="geometry" />
        </mxCell>
        <mxCell id="sVk84HxdAhhgWRtZxsjx-45" value="" style="ellipse;whiteSpace=wrap;html=1;aspect=fixed;" vertex="1" parent="sVk84HxdAhhgWRtZxsjx-36">
          <mxGeometry y="182" width="20" height="20" as="geometry" />
        </mxCell>
        <mxCell id="sVk84HxdAhhgWRtZxsjx-46" value="Text" style="text;html=1;align=center;verticalAlign=middle;whiteSpace=wrap;rounded=0;" vertex="1" parent="1">
          <mxGeometry x="1091" y="-138" width="60" height="30" as="geometry" />
        </mxCell>
        <mxCell id="sVk84HxdAhhgWRtZxsjx-47" value="Text" style="text;html=1;align=center;verticalAlign=middle;whiteSpace=wrap;rounded=0;" vertex="1" parent="1">
          <mxGeometry x="1091" y="-103" width="60" height="30" as="geometry" />
        </mxCell>
        <mxCell id="sVk84HxdAhhgWRtZxsjx-48" value="Text" style="text;html=1;align=center;verticalAlign=middle;whiteSpace=wrap;rounded=0;" vertex="1" parent="1">
          <mxGeometry x="1091" y="-68" width="60" height="30" as="geometry" />
        </mxCell>
        <mxCell id="sVk84HxdAhhgWRtZxsjx-49" value="Text" style="text;html=1;align=center;verticalAlign=middle;whiteSpace=wrap;rounded=0;" vertex="1" parent="1">
          <mxGeometry x="1091" y="-32" width="60" height="30" as="geometry" />
        </mxCell>
        <mxCell id="sVk84HxdAhhgWRtZxsjx-50" value="Text" style="text;html=1;align=center;verticalAlign=middle;whiteSpace=wrap;rounded=0;" vertex="1" parent="1">
          <mxGeometry x="1091" y="1" width="60" height="30" as="geometry" />
        </mxCell>
        <mxCell id="sVk84HxdAhhgWRtZxsjx-51" value="Text" style="text;html=1;align=center;verticalAlign=middle;whiteSpace=wrap;rounded=0;" vertex="1" parent="1">
          <mxGeometry x="1091" y="34" width="60" height="30" as="geometry" />
        </mxCell>
        <mxCell id="sVk84HxdAhhgWRtZxsjx-66" value="" style="group" vertex="1" connectable="0" parent="1">
          <mxGeometry x="1568" y="451" width="85" height="209" as="geometry" />
        </mxCell>
        <mxCell id="H71wBJpox2kWIjM6bh9o-34" value="" style="group" parent="sVk84HxdAhhgWRtZxsjx-66" vertex="1" connectable="0">
          <mxGeometry width="20" height="202" as="geometry" />
        </mxCell>
        <mxCell id="H71wBJpox2kWIjM6bh9o-24" value="" style="endArrow=none;html=1;rounded=0;" parent="H71wBJpox2kWIjM6bh9o-34" source="H71wBJpox2kWIjM6bh9o-25" edge="1">
          <mxGeometry width="50" height="50" relative="1" as="geometry">
            <mxPoint x="10" y="266" as="sourcePoint" />
            <mxPoint x="10" as="targetPoint" />
          </mxGeometry>
        </mxCell>
        <mxCell id="H71wBJpox2kWIjM6bh9o-26" value="" style="endArrow=none;html=1;rounded=0;" parent="H71wBJpox2kWIjM6bh9o-34" source="H71wBJpox2kWIjM6bh9o-28" target="H71wBJpox2kWIjM6bh9o-25" edge="1">
          <mxGeometry width="50" height="50" relative="1" as="geometry">
            <mxPoint x="10" y="266" as="sourcePoint" />
            <mxPoint x="10" as="targetPoint" />
          </mxGeometry>
        </mxCell>
        <mxCell id="H71wBJpox2kWIjM6bh9o-25" value="" style="ellipse;whiteSpace=wrap;html=1;aspect=fixed;" parent="H71wBJpox2kWIjM6bh9o-34" vertex="1">
          <mxGeometry y="46" width="20" height="20" as="geometry" />
        </mxCell>
        <mxCell id="H71wBJpox2kWIjM6bh9o-27" value="" style="ellipse;whiteSpace=wrap;html=1;aspect=fixed;" parent="H71wBJpox2kWIjM6bh9o-34" vertex="1">
          <mxGeometry y="11" width="20" height="20" as="geometry" />
        </mxCell>
        <mxCell id="H71wBJpox2kWIjM6bh9o-29" value="" style="endArrow=none;html=1;rounded=0;" parent="H71wBJpox2kWIjM6bh9o-34" source="H71wBJpox2kWIjM6bh9o-32" target="H71wBJpox2kWIjM6bh9o-28" edge="1">
          <mxGeometry width="50" height="50" relative="1" as="geometry">
            <mxPoint x="10" y="266" as="sourcePoint" />
            <mxPoint x="10" y="65" as="targetPoint" />
          </mxGeometry>
        </mxCell>
        <mxCell id="H71wBJpox2kWIjM6bh9o-28" value="" style="ellipse;whiteSpace=wrap;html=1;aspect=fixed;" parent="H71wBJpox2kWIjM6bh9o-34" vertex="1">
          <mxGeometry y="80" width="20" height="20" as="geometry" />
        </mxCell>
        <mxCell id="H71wBJpox2kWIjM6bh9o-30" value="" style="ellipse;whiteSpace=wrap;html=1;aspect=fixed;" parent="H71wBJpox2kWIjM6bh9o-34" vertex="1">
          <mxGeometry y="115" width="20" height="20" as="geometry" />
        </mxCell>
        <mxCell id="H71wBJpox2kWIjM6bh9o-31" value="" style="ellipse;whiteSpace=wrap;html=1;aspect=fixed;" parent="H71wBJpox2kWIjM6bh9o-34" vertex="1">
          <mxGeometry y="149" width="20" height="20" as="geometry" />
        </mxCell>
        <mxCell id="H71wBJpox2kWIjM6bh9o-32" value="" style="ellipse;whiteSpace=wrap;html=1;aspect=fixed;" parent="H71wBJpox2kWIjM6bh9o-34" vertex="1">
          <mxGeometry y="182" width="20" height="20" as="geometry" />
        </mxCell>
        <mxCell id="H71wBJpox2kWIjM6bh9o-35" value="Text" style="text;html=1;align=center;verticalAlign=middle;whiteSpace=wrap;rounded=0;" parent="sVk84HxdAhhgWRtZxsjx-66" vertex="1">
          <mxGeometry x="25" y="7" width="60" height="30" as="geometry" />
        </mxCell>
        <mxCell id="H71wBJpox2kWIjM6bh9o-36" value="Text" style="text;html=1;align=center;verticalAlign=middle;whiteSpace=wrap;rounded=0;" parent="sVk84HxdAhhgWRtZxsjx-66" vertex="1">
          <mxGeometry x="25" y="42" width="60" height="30" as="geometry" />
        </mxCell>
        <mxCell id="H71wBJpox2kWIjM6bh9o-37" value="Text" style="text;html=1;align=center;verticalAlign=middle;whiteSpace=wrap;rounded=0;" parent="sVk84HxdAhhgWRtZxsjx-66" vertex="1">
          <mxGeometry x="25" y="77" width="60" height="30" as="geometry" />
        </mxCell>
        <mxCell id="H71wBJpox2kWIjM6bh9o-38" value="Text" style="text;html=1;align=center;verticalAlign=middle;whiteSpace=wrap;rounded=0;" parent="sVk84HxdAhhgWRtZxsjx-66" vertex="1">
          <mxGeometry x="25" y="113" width="60" height="30" as="geometry" />
        </mxCell>
        <mxCell id="H71wBJpox2kWIjM6bh9o-39" value="Text" style="text;html=1;align=center;verticalAlign=middle;whiteSpace=wrap;rounded=0;" parent="sVk84HxdAhhgWRtZxsjx-66" vertex="1">
          <mxGeometry x="25" y="146" width="60" height="30" as="geometry" />
        </mxCell>
        <mxCell id="H71wBJpox2kWIjM6bh9o-40" value="Text" style="text;html=1;align=center;verticalAlign=middle;whiteSpace=wrap;rounded=0;" parent="sVk84HxdAhhgWRtZxsjx-66" vertex="1">
          <mxGeometry x="25" y="179" width="60" height="30" as="geometry" />
        </mxCell>
        <mxCell id="sVk84HxdAhhgWRtZxsjx-67" value="" style="group" vertex="1" connectable="0" parent="1">
          <mxGeometry x="1567" y="-529" width="85" height="209" as="geometry" />
        </mxCell>
        <mxCell id="sVk84HxdAhhgWRtZxsjx-68" value="" style="group" vertex="1" connectable="0" parent="sVk84HxdAhhgWRtZxsjx-67">
          <mxGeometry width="20" height="202" as="geometry" />
        </mxCell>
        <mxCell id="sVk84HxdAhhgWRtZxsjx-69" value="" style="endArrow=none;html=1;rounded=0;" edge="1" parent="sVk84HxdAhhgWRtZxsjx-68" source="sVk84HxdAhhgWRtZxsjx-71">
          <mxGeometry width="50" height="50" relative="1" as="geometry">
            <mxPoint x="10" y="266" as="sourcePoint" />
            <mxPoint x="10" as="targetPoint" />
          </mxGeometry>
        </mxCell>
        <mxCell id="sVk84HxdAhhgWRtZxsjx-70" value="" style="endArrow=none;html=1;rounded=0;" edge="1" parent="sVk84HxdAhhgWRtZxsjx-68" source="sVk84HxdAhhgWRtZxsjx-74" target="sVk84HxdAhhgWRtZxsjx-71">
          <mxGeometry width="50" height="50" relative="1" as="geometry">
            <mxPoint x="10" y="266" as="sourcePoint" />
            <mxPoint x="10" as="targetPoint" />
          </mxGeometry>
        </mxCell>
        <mxCell id="sVk84HxdAhhgWRtZxsjx-71" value="" style="ellipse;whiteSpace=wrap;html=1;aspect=fixed;" vertex="1" parent="sVk84HxdAhhgWRtZxsjx-68">
          <mxGeometry y="46" width="20" height="20" as="geometry" />
        </mxCell>
        <mxCell id="sVk84HxdAhhgWRtZxsjx-72" value="" style="ellipse;whiteSpace=wrap;html=1;aspect=fixed;" vertex="1" parent="sVk84HxdAhhgWRtZxsjx-68">
          <mxGeometry y="11" width="20" height="20" as="geometry" />
        </mxCell>
        <mxCell id="sVk84HxdAhhgWRtZxsjx-73" value="" style="endArrow=none;html=1;rounded=0;" edge="1" parent="sVk84HxdAhhgWRtZxsjx-68" source="sVk84HxdAhhgWRtZxsjx-77" target="sVk84HxdAhhgWRtZxsjx-74">
          <mxGeometry width="50" height="50" relative="1" as="geometry">
            <mxPoint x="10" y="266" as="sourcePoint" />
            <mxPoint x="10" y="65" as="targetPoint" />
          </mxGeometry>
        </mxCell>
        <mxCell id="sVk84HxdAhhgWRtZxsjx-74" value="" style="ellipse;whiteSpace=wrap;html=1;aspect=fixed;" vertex="1" parent="sVk84HxdAhhgWRtZxsjx-68">
          <mxGeometry y="80" width="20" height="20" as="geometry" />
        </mxCell>
        <mxCell id="sVk84HxdAhhgWRtZxsjx-75" value="" style="ellipse;whiteSpace=wrap;html=1;aspect=fixed;" vertex="1" parent="sVk84HxdAhhgWRtZxsjx-68">
          <mxGeometry y="115" width="20" height="20" as="geometry" />
        </mxCell>
        <mxCell id="sVk84HxdAhhgWRtZxsjx-76" value="" style="ellipse;whiteSpace=wrap;html=1;aspect=fixed;" vertex="1" parent="sVk84HxdAhhgWRtZxsjx-68">
          <mxGeometry y="149" width="20" height="20" as="geometry" />
        </mxCell>
        <mxCell id="sVk84HxdAhhgWRtZxsjx-77" value="" style="ellipse;whiteSpace=wrap;html=1;aspect=fixed;" vertex="1" parent="sVk84HxdAhhgWRtZxsjx-68">
          <mxGeometry y="182" width="20" height="20" as="geometry" />
        </mxCell>
        <mxCell id="sVk84HxdAhhgWRtZxsjx-78" value="Text" style="text;html=1;align=center;verticalAlign=middle;whiteSpace=wrap;rounded=0;" vertex="1" parent="sVk84HxdAhhgWRtZxsjx-67">
          <mxGeometry x="25" y="7" width="60" height="30" as="geometry" />
        </mxCell>
        <mxCell id="sVk84HxdAhhgWRtZxsjx-79" value="Text" style="text;html=1;align=center;verticalAlign=middle;whiteSpace=wrap;rounded=0;" vertex="1" parent="sVk84HxdAhhgWRtZxsjx-67">
          <mxGeometry x="25" y="42" width="60" height="30" as="geometry" />
        </mxCell>
        <mxCell id="sVk84HxdAhhgWRtZxsjx-80" value="Text" style="text;html=1;align=center;verticalAlign=middle;whiteSpace=wrap;rounded=0;" vertex="1" parent="sVk84HxdAhhgWRtZxsjx-67">
          <mxGeometry x="25" y="77" width="60" height="30" as="geometry" />
        </mxCell>
        <mxCell id="sVk84HxdAhhgWRtZxsjx-81" value="Text" style="text;html=1;align=center;verticalAlign=middle;whiteSpace=wrap;rounded=0;" vertex="1" parent="sVk84HxdAhhgWRtZxsjx-67">
          <mxGeometry x="25" y="113" width="60" height="30" as="geometry" />
        </mxCell>
        <mxCell id="sVk84HxdAhhgWRtZxsjx-82" value="Text" style="text;html=1;align=center;verticalAlign=middle;whiteSpace=wrap;rounded=0;" vertex="1" parent="sVk84HxdAhhgWRtZxsjx-67">
          <mxGeometry x="25" y="146" width="60" height="30" as="geometry" />
        </mxCell>
        <mxCell id="sVk84HxdAhhgWRtZxsjx-83" value="Text" style="text;html=1;align=center;verticalAlign=middle;whiteSpace=wrap;rounded=0;" vertex="1" parent="sVk84HxdAhhgWRtZxsjx-67">
          <mxGeometry x="25" y="179" width="60" height="30" as="geometry" />
        </mxCell>
        <mxCell id="sVk84HxdAhhgWRtZxsjx-84" value="" style="group" vertex="1" connectable="0" parent="1">
          <mxGeometry x="2284" y="-529" width="85" height="209" as="geometry" />
        </mxCell>
        <mxCell id="sVk84HxdAhhgWRtZxsjx-85" value="" style="group" vertex="1" connectable="0" parent="sVk84HxdAhhgWRtZxsjx-84">
          <mxGeometry width="20" height="202" as="geometry" />
        </mxCell>
        <mxCell id="sVk84HxdAhhgWRtZxsjx-86" value="" style="endArrow=none;html=1;rounded=0;" edge="1" parent="sVk84HxdAhhgWRtZxsjx-85" source="sVk84HxdAhhgWRtZxsjx-88">
          <mxGeometry width="50" height="50" relative="1" as="geometry">
            <mxPoint x="10" y="266" as="sourcePoint" />
            <mxPoint x="10" as="targetPoint" />
          </mxGeometry>
        </mxCell>
        <mxCell id="sVk84HxdAhhgWRtZxsjx-87" value="" style="endArrow=none;html=1;rounded=0;" edge="1" parent="sVk84HxdAhhgWRtZxsjx-85" source="sVk84HxdAhhgWRtZxsjx-91" target="sVk84HxdAhhgWRtZxsjx-88">
          <mxGeometry width="50" height="50" relative="1" as="geometry">
            <mxPoint x="10" y="266" as="sourcePoint" />
            <mxPoint x="10" as="targetPoint" />
          </mxGeometry>
        </mxCell>
        <mxCell id="sVk84HxdAhhgWRtZxsjx-88" value="" style="ellipse;whiteSpace=wrap;html=1;aspect=fixed;" vertex="1" parent="sVk84HxdAhhgWRtZxsjx-85">
          <mxGeometry y="46" width="20" height="20" as="geometry" />
        </mxCell>
        <mxCell id="sVk84HxdAhhgWRtZxsjx-89" value="" style="ellipse;whiteSpace=wrap;html=1;aspect=fixed;" vertex="1" parent="sVk84HxdAhhgWRtZxsjx-85">
          <mxGeometry y="11" width="20" height="20" as="geometry" />
        </mxCell>
        <mxCell id="sVk84HxdAhhgWRtZxsjx-90" value="" style="endArrow=none;html=1;rounded=0;" edge="1" parent="sVk84HxdAhhgWRtZxsjx-85" source="sVk84HxdAhhgWRtZxsjx-94" target="sVk84HxdAhhgWRtZxsjx-91">
          <mxGeometry width="50" height="50" relative="1" as="geometry">
            <mxPoint x="10" y="266" as="sourcePoint" />
            <mxPoint x="10" y="65" as="targetPoint" />
          </mxGeometry>
        </mxCell>
        <mxCell id="sVk84HxdAhhgWRtZxsjx-91" value="" style="ellipse;whiteSpace=wrap;html=1;aspect=fixed;" vertex="1" parent="sVk84HxdAhhgWRtZxsjx-85">
          <mxGeometry y="80" width="20" height="20" as="geometry" />
        </mxCell>
        <mxCell id="sVk84HxdAhhgWRtZxsjx-92" value="" style="ellipse;whiteSpace=wrap;html=1;aspect=fixed;" vertex="1" parent="sVk84HxdAhhgWRtZxsjx-85">
          <mxGeometry y="115" width="20" height="20" as="geometry" />
        </mxCell>
        <mxCell id="sVk84HxdAhhgWRtZxsjx-93" value="" style="ellipse;whiteSpace=wrap;html=1;aspect=fixed;" vertex="1" parent="sVk84HxdAhhgWRtZxsjx-85">
          <mxGeometry y="149" width="20" height="20" as="geometry" />
        </mxCell>
        <mxCell id="sVk84HxdAhhgWRtZxsjx-94" value="" style="ellipse;whiteSpace=wrap;html=1;aspect=fixed;" vertex="1" parent="sVk84HxdAhhgWRtZxsjx-85">
          <mxGeometry y="182" width="20" height="20" as="geometry" />
        </mxCell>
        <mxCell id="sVk84HxdAhhgWRtZxsjx-95" value="Text" style="text;html=1;align=center;verticalAlign=middle;whiteSpace=wrap;rounded=0;" vertex="1" parent="sVk84HxdAhhgWRtZxsjx-84">
          <mxGeometry x="25" y="7" width="60" height="30" as="geometry" />
        </mxCell>
        <mxCell id="sVk84HxdAhhgWRtZxsjx-96" value="Text" style="text;html=1;align=center;verticalAlign=middle;whiteSpace=wrap;rounded=0;" vertex="1" parent="sVk84HxdAhhgWRtZxsjx-84">
          <mxGeometry x="25" y="42" width="60" height="30" as="geometry" />
        </mxCell>
        <mxCell id="sVk84HxdAhhgWRtZxsjx-97" value="Text" style="text;html=1;align=center;verticalAlign=middle;whiteSpace=wrap;rounded=0;" vertex="1" parent="sVk84HxdAhhgWRtZxsjx-84">
          <mxGeometry x="25" y="77" width="60" height="30" as="geometry" />
        </mxCell>
        <mxCell id="sVk84HxdAhhgWRtZxsjx-98" value="Text" style="text;html=1;align=center;verticalAlign=middle;whiteSpace=wrap;rounded=0;" vertex="1" parent="sVk84HxdAhhgWRtZxsjx-84">
          <mxGeometry x="25" y="113" width="60" height="30" as="geometry" />
        </mxCell>
        <mxCell id="sVk84HxdAhhgWRtZxsjx-99" value="Text" style="text;html=1;align=center;verticalAlign=middle;whiteSpace=wrap;rounded=0;" vertex="1" parent="sVk84HxdAhhgWRtZxsjx-84">
          <mxGeometry x="25" y="146" width="60" height="30" as="geometry" />
        </mxCell>
        <mxCell id="sVk84HxdAhhgWRtZxsjx-100" value="Text" style="text;html=1;align=center;verticalAlign=middle;whiteSpace=wrap;rounded=0;" vertex="1" parent="sVk84HxdAhhgWRtZxsjx-84">
          <mxGeometry x="25" y="179" width="60" height="30" as="geometry" />
        </mxCell>
        <mxCell id="sVk84HxdAhhgWRtZxsjx-101" value="" style="group" vertex="1" connectable="0" parent="1">
          <mxGeometry x="2257" y="-145" width="85" height="209" as="geometry" />
        </mxCell>
        <mxCell id="sVk84HxdAhhgWRtZxsjx-102" value="" style="group" vertex="1" connectable="0" parent="sVk84HxdAhhgWRtZxsjx-101">
          <mxGeometry width="20" height="202" as="geometry" />
        </mxCell>
        <mxCell id="sVk84HxdAhhgWRtZxsjx-103" value="" style="endArrow=none;html=1;rounded=0;" edge="1" parent="sVk84HxdAhhgWRtZxsjx-102" source="sVk84HxdAhhgWRtZxsjx-105">
          <mxGeometry width="50" height="50" relative="1" as="geometry">
            <mxPoint x="10" y="266" as="sourcePoint" />
            <mxPoint x="10" as="targetPoint" />
          </mxGeometry>
        </mxCell>
        <mxCell id="sVk84HxdAhhgWRtZxsjx-104" value="" style="endArrow=none;html=1;rounded=0;" edge="1" parent="sVk84HxdAhhgWRtZxsjx-102" source="sVk84HxdAhhgWRtZxsjx-108" target="sVk84HxdAhhgWRtZxsjx-105">
          <mxGeometry width="50" height="50" relative="1" as="geometry">
            <mxPoint x="10" y="266" as="sourcePoint" />
            <mxPoint x="10" as="targetPoint" />
          </mxGeometry>
        </mxCell>
        <mxCell id="sVk84HxdAhhgWRtZxsjx-105" value="" style="ellipse;whiteSpace=wrap;html=1;aspect=fixed;" vertex="1" parent="sVk84HxdAhhgWRtZxsjx-102">
          <mxGeometry y="46" width="20" height="20" as="geometry" />
        </mxCell>
        <mxCell id="sVk84HxdAhhgWRtZxsjx-106" value="" style="ellipse;whiteSpace=wrap;html=1;aspect=fixed;" vertex="1" parent="sVk84HxdAhhgWRtZxsjx-102">
          <mxGeometry y="11" width="20" height="20" as="geometry" />
        </mxCell>
        <mxCell id="sVk84HxdAhhgWRtZxsjx-107" value="" style="endArrow=none;html=1;rounded=0;" edge="1" parent="sVk84HxdAhhgWRtZxsjx-102" source="sVk84HxdAhhgWRtZxsjx-111" target="sVk84HxdAhhgWRtZxsjx-108">
          <mxGeometry width="50" height="50" relative="1" as="geometry">
            <mxPoint x="10" y="266" as="sourcePoint" />
            <mxPoint x="10" y="65" as="targetPoint" />
          </mxGeometry>
        </mxCell>
        <mxCell id="sVk84HxdAhhgWRtZxsjx-108" value="" style="ellipse;whiteSpace=wrap;html=1;aspect=fixed;" vertex="1" parent="sVk84HxdAhhgWRtZxsjx-102">
          <mxGeometry y="80" width="20" height="20" as="geometry" />
        </mxCell>
        <mxCell id="sVk84HxdAhhgWRtZxsjx-109" value="" style="ellipse;whiteSpace=wrap;html=1;aspect=fixed;" vertex="1" parent="sVk84HxdAhhgWRtZxsjx-102">
          <mxGeometry y="115" width="20" height="20" as="geometry" />
        </mxCell>
        <mxCell id="sVk84HxdAhhgWRtZxsjx-110" value="" style="ellipse;whiteSpace=wrap;html=1;aspect=fixed;" vertex="1" parent="sVk84HxdAhhgWRtZxsjx-102">
          <mxGeometry y="149" width="20" height="20" as="geometry" />
        </mxCell>
        <mxCell id="sVk84HxdAhhgWRtZxsjx-111" value="" style="ellipse;whiteSpace=wrap;html=1;aspect=fixed;" vertex="1" parent="sVk84HxdAhhgWRtZxsjx-102">
          <mxGeometry y="182" width="20" height="20" as="geometry" />
        </mxCell>
        <mxCell id="sVk84HxdAhhgWRtZxsjx-112" value="Text" style="text;html=1;align=center;verticalAlign=middle;whiteSpace=wrap;rounded=0;" vertex="1" parent="sVk84HxdAhhgWRtZxsjx-101">
          <mxGeometry x="25" y="7" width="60" height="30" as="geometry" />
        </mxCell>
        <mxCell id="sVk84HxdAhhgWRtZxsjx-113" value="Text" style="text;html=1;align=center;verticalAlign=middle;whiteSpace=wrap;rounded=0;" vertex="1" parent="sVk84HxdAhhgWRtZxsjx-101">
          <mxGeometry x="25" y="42" width="60" height="30" as="geometry" />
        </mxCell>
        <mxCell id="sVk84HxdAhhgWRtZxsjx-114" value="Text" style="text;html=1;align=center;verticalAlign=middle;whiteSpace=wrap;rounded=0;" vertex="1" parent="sVk84HxdAhhgWRtZxsjx-101">
          <mxGeometry x="25" y="77" width="60" height="30" as="geometry" />
        </mxCell>
        <mxCell id="sVk84HxdAhhgWRtZxsjx-115" value="Text" style="text;html=1;align=center;verticalAlign=middle;whiteSpace=wrap;rounded=0;" vertex="1" parent="sVk84HxdAhhgWRtZxsjx-101">
          <mxGeometry x="25" y="113" width="60" height="30" as="geometry" />
        </mxCell>
        <mxCell id="sVk84HxdAhhgWRtZxsjx-116" value="Text" style="text;html=1;align=center;verticalAlign=middle;whiteSpace=wrap;rounded=0;" vertex="1" parent="sVk84HxdAhhgWRtZxsjx-101">
          <mxGeometry x="25" y="146" width="60" height="30" as="geometry" />
        </mxCell>
        <mxCell id="sVk84HxdAhhgWRtZxsjx-117" value="Text" style="text;html=1;align=center;verticalAlign=middle;whiteSpace=wrap;rounded=0;" vertex="1" parent="sVk84HxdAhhgWRtZxsjx-101">
          <mxGeometry x="25" y="179" width="60" height="30" as="geometry" />
        </mxCell>
        <mxCell id="sVk84HxdAhhgWRtZxsjx-118" value="" style="rhombus;whiteSpace=wrap;html=1;" vertex="1" parent="1">
          <mxGeometry x="1530" y="-213" width="80" height="80" as="geometry" />
        </mxCell>
        <mxCell id="sVk84HxdAhhgWRtZxsjx-119" value="" style="endArrow=none;html=1;rounded=0;exitX=0;exitY=0.5;exitDx=0;exitDy=0;entryX=1;entryY=0.5;entryDx=0;entryDy=0;" edge="1" parent="1" target="sVk84HxdAhhgWRtZxsjx-118">
          <mxGeometry width="50" height="50" relative="1" as="geometry">
            <mxPoint x="2154" y="-173.5" as="sourcePoint" />
            <mxPoint x="1972" y="-173.5" as="targetPoint" />
          </mxGeometry>
        </mxCell>
        <mxCell id="sVk84HxdAhhgWRtZxsjx-120" value="Text" style="text;html=1;align=center;verticalAlign=middle;whiteSpace=wrap;rounded=0;" vertex="1" parent="1">
          <mxGeometry x="1122" y="-206" width="60" height="29" as="geometry" />
        </mxCell>
        <mxCell id="sVk84HxdAhhgWRtZxsjx-121" value="Text" style="text;html=1;align=center;verticalAlign=middle;whiteSpace=wrap;rounded=0;" vertex="1" parent="1">
          <mxGeometry x="2088" y="-208" width="60" height="30" as="geometry" />
        </mxCell>
        <mxCell id="sVk84HxdAhhgWRtZxsjx-122" value="" style="endArrow=none;html=1;rounded=0;exitX=0;exitY=0.5;exitDx=0;exitDy=0;exitPerimeter=0;" edge="1" parent="1" source="sVk84HxdAhhgWRtZxsjx-118" target="H71wBJpox2kWIjM6bh9o-1">
          <mxGeometry width="50" height="50" relative="1" as="geometry">
            <mxPoint x="1522" y="-173" as="sourcePoint" />
            <mxPoint x="1710" y="-173.5" as="targetPoint" />
          </mxGeometry>
        </mxCell>
      </root>
    </mxGraphModel>
  </diagram>
</mxfile>
